<?xml version="1.0" encoding="UTF-8" standalone="no"?>
<svg
   xmlns:dc="http://purl.org/dc/elements/1.1/"
   xmlns:cc="http://creativecommons.org/ns#"
   xmlns:rdf="http://www.w3.org/1999/02/22-rdf-syntax-ns#"
   xmlns:svg="http://www.w3.org/2000/svg"
   xmlns="http://www.w3.org/2000/svg"
   xmlns:sodipodi="http://sodipodi.sourceforge.net/DTD/sodipodi-0.dtd"
   xmlns:inkscape="http://www.inkscape.org/namespaces/inkscape"
   version="1.1"
   id="svg2"
   xml:space="preserve"
   width="1122.52"
   height="793.70667"
   viewBox="0 0 1122.52 793.70667"
   sodipodi:docname="RMIT Logo RGB.ai"><metadata
     id="metadata8"><rdf:RDF><cc:Work
         rdf:about=""><dc:format>image/svg+xml</dc:format><dc:type
           rdf:resource="http://purl.org/dc/dcmitype/StillImage" /></cc:Work></rdf:RDF></metadata><defs
     id="defs6"><clipPath
       clipPathUnits="userSpaceOnUse"
       id="clipPath18"><path
         d="M 0,595.28 H 841.89 V 0 H 0 Z"
         id="path16" /></clipPath></defs><sodipodi:namedview
     pagecolor="#ffffff"
     bordercolor="#666666"
     borderopacity="1"
     objecttolerance="10"
     gridtolerance="10"
     guidetolerance="10"
     inkscape:pageopacity="0"
     inkscape:pageshadow="2"
     inkscape:window-width="640"
     inkscape:window-height="480"
     id="namedview4" /><g
     id="g10"
     inkscape:groupmode="layer"
     inkscape:label="RMIT Logo RGB"
     transform="matrix(1.3333333,0,0,-1.3333333,0,793.70667)"><g
       id="g12"><g
         id="g14"
         clip-path="url(#clipPath18)"><g
           id="g20"
           transform="translate(166.667,413.5212)"><path
             d="m 0,0 h -20.349 v -16.533 h -33.885 v -34.474 h -25.488 v -50.622 h 25.488 v -34.475 h 33.885 v -16.483 h 17.941 c 41.916,0 78.897,33.835 78.897,76.105 C 76.489,-34.505 41.984,0 0,0"
             style="fill:#e60028;fill-opacity:1;fill-rule:nonzero;stroke:none"
             id="path22" /></g><g
           id="g24"
           transform="translate(618.4902,398.9548)"><path
             d="M 0,0 H 17.6 V 6.479 H -43.734 V 0 h 17.693 v -123.375 h -17.693 v -6.43 H 17.6 v 6.43 H 0 Z"
             style="fill:#000054;fill-opacity:1;fill-rule:nonzero;stroke:none"
             id="path26" /></g><g
           id="g28"
           transform="translate(730.1084,269.1521)"><path
             d="M 0,0 V 6.398 H -18.798 V 131.17 c 28.734,1.44 33.643,-4.717 37.323,-30.788 h 6.312 l -2.234,35.902 H -86.53 l -2.222,-35.902 h 6.473 c 3.712,26.071 8.564,32.228 37.347,30.788 V 6.398 H -63.741 V 0 L 0,0"
             style="fill:#000054;fill-opacity:1;fill-rule:nonzero;stroke:none"
             id="path30" /></g><g
           id="g32"
           transform="translate(563.0791,399.0031)"><path
             d="m 0,0 v 6.436 h -50.263 l -29.552,-93.214 -28.53,93.214 h -50.082 V 0 h 17.613 v -123.456 l -19.028,0.019 c -17.675,-0.435 -17.942,14.634 -17.867,17.755 0.248,33.215 -7.174,45.31 -39.017,50.231 v 0.447 c 18.997,2.005 43.268,7.404 43.268,30.428 0,28.343 -26.456,31.012 -48.767,31.012 H -287.94 V 0 h 17.594 v -123.437 h -17.594 v -6.417 h 61.309 v 6.417 h -17.594 v 65.076 c 11.301,0.453 24.036,-2.433 29.783,-7.379 5.318,-4.506 8.173,-18.494 8.173,-35.381 0,-20.839 10.761,-28.733 31.402,-28.733 h 59.081 v 6.398 h -17.215 V -2.11 h 0.422 l 40.575,-127.744 h 6.889 L -44.286,-2.11 h 0.62 v -121.346 h -17.557 v -6.398 H 0 v 6.398 H -17.569 L -17.569,0 Z M -244.225,-51.994 V 0 h 17.749 c 18.172,0 24.887,-4.568 24.887,-27.486 0,-18.271 -7.535,-24.508 -25.911,-24.508 h -16.725"
             style="fill:#000054;fill-opacity:1;fill-rule:nonzero;stroke:none"
             id="path34" /></g><g
           id="g36"
           transform="translate(292.7334,227.9196)"><path
             d="m 0,0 c 0,1.136 -0.608,1.663 -1.663,1.663 h -3.253 v 6.504 h 7.64 c 3.407,0 4.841,-1.434 4.841,-4.84 v -29.591 c 0,-8.011 5.07,-12.79 12.79,-12.79 7.721,0 12.791,4.779 12.791,12.871 v 29.51 c 0,3.406 1.514,4.84 4.915,4.84 h 7.572 V 1.663 H 42.375 C 41.319,1.663 40.717,1.136 40.717,0 V -26.562 C 40.717,-38.21 32.619,-46.16 20.436,-46.16 8.167,-46.16 0,-38.21 0,-26.562 Z"
             style="fill:#000054;fill-opacity:1;fill-rule:nonzero;stroke:none"
             id="path38" /></g><g
           id="g40"
           transform="translate(343.4858,189.1765)"><path
             d="M 0,0 H 3.246 C 4.313,0 4.921,0.607 4.921,1.663 V 46.91 h 6.883 L 35.566,13.094 c 1.961,-2.879 4.462,-7.267 4.462,-7.267 h 0.15 c 0,0 -0.528,4.238 -0.528,7.267 V 42.07 c 0,3.407 1.44,4.84 4.921,4.84 h 7.572 v -6.504 h -3.259 c -1.061,0 -1.663,-0.527 -1.663,-1.663 V -6.511 H 40.407 L 16.57,27.312 c -1.961,2.879 -4.388,7.267 -4.388,7.267 h -0.155 c 0,0 0.459,-4.312 0.459,-7.267 V -1.664 c 0,-3.406 -1.439,-4.847 -4.846,-4.847 l -7.64,0 z"
             style="fill:#000054;fill-opacity:1;fill-rule:nonzero;stroke:none"
             id="path42" /></g><g
           id="g44"
           transform="translate(403.8359,189.1765)"><path
             d="M 0,0 H 5.219 V 40.406 H 0 V 46.91 H 17.631 V 40.406 H 12.412 V 0 h 5.219 V -6.511 H 0 Z"
             style="fill:#000054;fill-opacity:1;fill-rule:nonzero;stroke:none"
             id="path46" /></g><g
           id="g48"
           transform="translate(429.7139,227.9196)"><path
             d="M 0,0 C -0.453,1.365 -1.211,1.663 -2.489,1.663 H -3.55 v 6.504 h 4.238 c 3.78,0 5.071,-0.831 6.281,-4.388 l 11.729,-32.91 c 0.988,-2.879 2.042,-7.348 2.042,-7.348 h 0.156 c 0,0 0.98,4.469 2.041,7.348 l 11.729,32.91 c 1.278,3.557 2.495,4.388 6.274,4.388 h 4.24 V 1.663 H 44.124 C 42.759,1.663 42.082,1.365 41.623,0 L 24.817,-45.254 h -8.011 z"
             style="fill:#000054;fill-opacity:1;fill-rule:nonzero;stroke:none"
             id="path50" /></g><g
           id="g52"
           transform="translate(484.208,229.5837)"><path
             d="m 0,0 h -4.915 v 6.504 h 31.408 c 3.402,0 4.841,-1.434 4.841,-4.841 V -5.07 h -6.889 v 3.407 C 24.445,-0.527 23.844,0 22.776,0 H 7.571 v -16.731 h 18.687 v -6.498 H 7.571 v -15.515 c 0,-1.055 0.609,-1.663 1.669,-1.663 h 15.577 c 1.075,0 1.676,0.608 1.676,1.663 v 3.407 h 6.964 v -6.733 c 0,-3.413 -1.44,-4.847 -4.848,-4.847 H 4.847 C 1.439,-46.917 0,-45.483 0,-42.07 Z"
             style="fill:#000054;fill-opacity:1;fill-rule:nonzero;stroke:none"
             id="path54" /></g><g
           id="g56"
           transform="translate(545.6846,210.4353)"><path
             d="m 0,0 c 5.747,0 9.147,3.711 9.147,9.688 0,5.982 -3.4,9.463 -9.004,9.463 H -9.843 V 0 Z m -17.408,19.151 h -4.921 v 6.504 H 0.975 c 9.382,0 15.973,-5.901 15.973,-15.664 0,-8.924 -5.827,-13.317 -9.613,-14.149 v -0.149 c 0,0 1.372,-0.682 2.266,-2.421 l 6.441,-12.79 c 0.758,-1.588 1.968,-1.738 3.78,-1.738 h 0.992 v -6.51 h -3.716 c -4.159,0 -5.673,0.528 -7.41,4.009 L 2.42,-9.384 c -1.358,2.501 -2.346,2.88 -5.3,2.88 h -6.963 v -21.262 h -7.565 z"
             style="fill:#000054;fill-opacity:1;fill-rule:nonzero;stroke:none"
             id="path58" /></g><g
           id="g60"
           transform="translate(576.1768,195.0769)"><path
             d="m 0,0 c 0,0 5.448,-6.436 13.392,-6.436 4.996,0 9.167,3.029 9.167,7.95 0,11.202 -25.812,9.465 -25.812,26.109 0,8.018 7.038,14.305 17.105,14.305 5.678,0 15.204,-2.582 15.204,-9.843 v -4.394 h -6.951 v 2.501 c 0,2.805 -4.015,4.847 -8.253,4.847 -5.753,0 -9.384,-3.184 -9.384,-7.193 0,-10.824 25.73,-8.403 25.73,-25.953 0,-8.173 -6.361,-15.211 -16.949,-15.211 -11.363,0 -17.712,7.95 -17.712,7.95 z"
             style="fill:#000054;fill-opacity:1;fill-rule:nonzero;stroke:none"
             id="path62" /></g><g
           id="g64"
           transform="translate(614.3105,189.1765)"><path
             d="M 0,0 H 5.226 V 40.406 H 0 V 46.91 H 17.644 V 40.406 H 12.412 V 0 h 5.232 V -6.511 H 0 Z"
             style="fill:#000054;fill-opacity:1;fill-rule:nonzero;stroke:none"
             id="path66" /></g><g
           id="g68"
           transform="translate(656.0166,229.5837)"><path
             d="m 0,0 h -10.749 c -1.062,0 -1.663,-0.527 -1.663,-1.663 V -5.07 h -6.734 v 7.038 c 0,3.4 1.124,4.536 4.537,4.536 H 22.18 c 3.388,0 4.53,-1.136 4.53,-4.536 V -5.07 h -6.727 v 3.407 C 19.983,-0.527 19.375,0 18.313,0 H 7.565 V -46.917 H 0 Z"
             style="fill:#000054;fill-opacity:1;fill-rule:nonzero;stroke:none"
             id="path70" /></g><g
           id="g72"
           transform="translate(704.3066,205.9734)"><path
             d="m 0,0 -13.549,21.721 c -0.979,1.589 -1.669,1.886 -3.263,1.886 h -1.508 v 6.51 h 3.474 c 3.637,0 5.077,-0.527 7.2,-4.09 L 0.452,12.561 C 2.196,9.606 3.704,6.584 3.704,6.584 h 0.155 c 0,0 1.434,3.022 3.246,5.977 l 8.031,13.466 c 2.11,3.563 3.631,4.09 7.18,4.09 h 3.488 v -6.51 h -1.452 c -1.577,0 -2.333,-0.297 -3.321,-1.886 L 7.559,0 V -23.31 H 0 Z"
             style="fill:#000054;fill-opacity:1;fill-rule:nonzero;stroke:none"
             id="path74" /></g></g></g></g></svg>
